<svg width="32" height="32" xmlns="http://www.w3.org/2000/svg">
  <path stroke="none" fill="#2c3e50" d="m31.10364,3.36244c-0.60292,-0.60278 -1.3271,-0.904 -2.17377,-0.904l-25.85216,0c-0.84633,0 -1.57092,0.30122 -2.17371,0.904c-0.60265,0.60292 -0.904,1.32724 -0.904,2.17377l0,20.92804c0,0.8466 0.30136,1.57038 0.904,2.1735c0.60278,0.60292 1.3273,0.9038 2.17371,0.9038l25.85216,0c0.8466,0 1.57079,-0.30089 2.17377,-0.9038c0.60265,-0.60312 0.9038,-1.3273 0.9038,-2.1735l0,-20.92804c0,-0.84653 -0.30115,-1.57106 -0.9038,-2.17377zm-21.25493,23.10114c0,0.18009 -0.05787,0.32716 -0.17342,0.4427c-0.11534,0.11527 -0.26269,0.17261 -0.44243,0.17261l-6.15515,0c-0.17935,0 -0.32696,-0.0574 -0.44243,-0.17261c-0.11541,-0.11554 -0.17301,-0.26262 -0.17301,-0.4427l0,-3.69336c0,-0.17982 0.0576,-0.32696 0.17301,-0.44196c0.11548,-0.11581 0.26309,-0.17342 0.44243,-0.17342l6.15535,0c0.17968,0 0.3273,0.0576 0.44243,0.17342c0.11527,0.115 0.17315,0.26215 0.17315,0.44196l0,3.69336l0.00007,0zm0,-7.38598c0,0.17941 -0.05787,0.32703 -0.17342,0.44223c-0.11534,0.11548 -0.26269,0.17308 -0.44243,0.17308l-6.15515,0c-0.17935,0 -0.32696,-0.0576 -0.44243,-0.17308c-0.11541,-0.11527 -0.17301,-0.26282 -0.17301,-0.44223l0,-3.69329c0,-0.17948 0.0576,-0.32703 0.17301,-0.44243c0.11548,-0.11514 0.26309,-0.17281 0.44243,-0.17281l6.15535,0c0.17968,0 0.32703,0.0576 0.44243,0.17281c0.11527,0.11541 0.17315,0.26295 0.17315,0.44243l0,3.69329l0.00007,0zm0,-7.38631c0,0.17961 -0.05787,0.32696 -0.17342,0.44243c-0.11534,0.11514 -0.26269,0.17301 -0.44243,0.17301l-6.15515,0c-0.17935,0 -0.32696,-0.05787 -0.44243,-0.17301c-0.11541,-0.11554 -0.17301,-0.26282 -0.17301,-0.44243l0,-3.69316c0,-0.17961 0.0576,-0.32716 0.17301,-0.44243c0.11548,-0.11541 0.26309,-0.17301 0.44243,-0.17301l6.15535,0c0.17968,0 0.32703,0.0576 0.44243,0.17301c0.11527,0.11527 0.17315,0.26282 0.17315,0.44243l0,3.69316l0.00007,0zm9.84844,14.77229c0,0.18009 -0.0576,0.32716 -0.17268,0.4427c-0.11527,0.11527 -0.26275,0.17261 -0.44264,0.17261l-6.15575,0c-0.17941,0 -0.32696,-0.0574 -0.44243,-0.17261c-0.11541,-0.11554 -0.17301,-0.26262 -0.17301,-0.4427l0,-3.69336c0,-0.17982 0.0576,-0.32696 0.17301,-0.44196c0.11548,-0.11581 0.26302,-0.17342 0.44243,-0.17342l6.15548,0c0.17982,0 0.32736,0.0576 0.44264,0.17342c0.1148,0.115 0.17247,0.26215 0.17247,0.44196l0,3.69329l0.00047,0l0,0.00007zm0,-7.38598c0,0.17941 -0.0576,0.32703 -0.17268,0.44223c-0.11527,0.11548 -0.26275,0.17308 -0.44264,0.17308l-6.15575,0c-0.17941,0 -0.32696,-0.0576 -0.44243,-0.17308c-0.11541,-0.11527 -0.17301,-0.26282 -0.17301,-0.44223l0,-3.69329c0,-0.17948 0.0576,-0.32703 0.17301,-0.44243c0.11548,-0.11514 0.26302,-0.17281 0.44243,-0.17281l6.15548,0c0.17982,0 0.32736,0.0576 0.44264,0.17281c0.1148,0.11541 0.17247,0.26295 0.17247,0.44243l0,3.69329l0.00047,0zm0,-7.38631c0,0.17961 -0.0576,0.32696 -0.17268,0.44243c-0.11527,0.11514 -0.26275,0.17301 -0.44264,0.17301l-6.15575,0c-0.17941,0 -0.32696,-0.05787 -0.44243,-0.17301c-0.11541,-0.11554 -0.17301,-0.26282 -0.17301,-0.44243l0,-3.69316c0,-0.17961 0.0576,-0.32716 0.17301,-0.44243c0.11548,-0.11541 0.26302,-0.17301 0.44243,-0.17301l6.15548,0c0.17982,0 0.32736,0.0576 0.44264,0.17301c0.1148,0.11527 0.17247,0.26282 0.17247,0.44243l0,3.69316l0.00047,0zm9.8481,14.77229c0,0.18009 -0.0576,0.32716 -0.17261,0.4427c-0.11575,0.11527 -0.26329,0.17261 -0.4427,0.17261l-6.15474,0c-0.18009,0 -0.32756,-0.0574 -0.44264,-0.17261c-0.11527,-0.11554 -0.17247,-0.26262 -0.17247,-0.4427l0,-3.69336c0,-0.17982 0.0572,-0.32696 0.17247,-0.44196c0.11507,-0.11581 0.26255,-0.17342 0.44264,-0.17342l6.15474,0c0.17941,0 0.32703,0.0576 0.4427,0.17342c0.115,0.115 0.17261,0.26215 0.17261,0.44196l0,3.69336zm0,-7.38598c0,0.17941 -0.0576,0.32703 -0.17261,0.44223c-0.11575,0.11548 -0.26329,0.17308 -0.4427,0.17308l-6.15474,0c-0.18009,0 -0.32756,-0.0576 -0.44264,-0.17308c-0.11527,-0.11527 -0.17247,-0.26282 -0.17247,-0.44223l0,-3.69329c0,-0.17948 0.0572,-0.32703 0.17247,-0.44243c0.11507,-0.11514 0.26255,-0.17281 0.44264,-0.17281l6.15474,0c0.17941,0 0.32703,0.0576 0.4427,0.17281c0.115,0.11541 0.17261,0.26295 0.17261,0.44243l0,3.69329zm0,-7.38631c0,0.17961 -0.0576,0.32696 -0.17261,0.44243c-0.11575,0.11514 -0.26329,0.17301 -0.4427,0.17301l-6.15474,0c-0.18009,0 -0.32756,-0.05787 -0.44264,-0.17301c-0.11527,-0.11554 -0.17247,-0.26282 -0.17247,-0.44243l0,-3.69316c0,-0.17961 0.0572,-0.32716 0.17247,-0.44243c0.11507,-0.11541 0.26255,-0.17301 0.44264,-0.17301l6.15474,0c0.17941,0 0.32703,0.0576 0.4427,0.17301c0.115,0.11527 0.17261,0.26282 0.17261,0.44243l0,3.69316z"/>
</svg>