<svg width="32" height="32" fill="#2c3e50" xmlns="http://www.w3.org/2000/svg">

 <g>
  <title>background</title>
  <rect fill="none" id="canvas_background" height="34" width="34" y="-1" x="-1"/>
 </g>
 <g>
  <title>Layer 1</title>
  <g stroke="null" id="XMLID_144_">
   <path stroke="null" d="m21.39822,28.36016l-17.61516,0l0,-24.72043l17.6151,0l0,6.12761l1.87788,-1.87794l0,-5.18862c0.00006,-0.51852 -0.42042,-0.93894 -0.93888,-0.93894l-19.49303,0c-0.51858,0 -0.93911,0.42042 -0.93911,0.93894l0,26.59842c0,0.51852 0.42048,0.93894 0.93911,0.93894l19.49303,0c0.51846,0 0.93894,-0.42042 0.93894,-0.93894l0,-10.33238l-1.87788,1.87794l0,7.51539z" id="XMLID_151_"/>
   <path stroke="null" d="m18.6299,5.8919l-12.07864,0c-0.39605,0 -0.71744,0.32139 -0.71744,0.71756c0,0.39611 0.32139,0.7175 0.71744,0.7175l12.07858,0c0.39617,0 0.7175,-0.32139 0.7175,-0.7175c0.00006,-0.39617 -0.32133,-0.71756 -0.71744,-0.71756z" id="XMLID_150_"/>
   <path stroke="null" d="m19.3474,10.43623c0,-0.39611 -0.32139,-0.71756 -0.7175,-0.71756l-12.07864,0c-0.39605,0 -0.71744,0.32145 -0.71744,0.71756c0,0.39617 0.32139,0.71756 0.71744,0.71756l12.07858,0c0.39617,0 0.71756,-0.32133 0.71756,-0.71756z" id="XMLID_149_"/>
   <path stroke="null" d="m17.62041,13.54561l-11.06915,0c-0.39605,0 -0.71744,0.32145 -0.71744,0.71756c0,0.39617 0.32139,0.7175 0.71744,0.7175l9.63403,0l1.43512,-1.43506z" id="XMLID_148_"/>
   <path stroke="null" d="m13.6067,18.30252c0.09712,-0.32515 0.23591,-0.6367 0.40497,-0.93008l-7.46035,0c-0.39605,0 -0.71744,0.32139 -0.71744,0.71756c0,0.39611 0.32139,0.71756 0.71744,0.71756l6.90496,0l0.15042,-0.50503z" id="XMLID_147_"/>
   <path stroke="null" d="m6.55126,21.19938c-0.39605,0 -0.71744,0.32139 -0.71744,0.71756c0,0.39605 0.32139,0.7175 0.71744,0.7175l6.30281,0c-0.18596,-0.45121 -0.23405,-0.9497 -0.10273,-1.43506l-6.20007,0z" id="XMLID_146_"/>
   <path stroke="null" d="m29.50829,7.19668c-0.37597,-0.37614 -0.88575,-0.58722 -1.41683,-0.58722c-0.53108,0 -1.04074,0.21108 -1.41631,0.58676l-10.61557,10.61586c-0.28967,0.28956 -0.50214,0.64602 -0.61946,1.03843l-0.84593,2.83563c-0.036,0.12004 -0.0033,0.24991 0.08548,0.3387c0.06494,0.065 0.15187,0.09995 0.241,0.09995c0.0323,0 0.0654,-0.00463 0.0977,-0.01441l2.83545,-0.84605c0.39252,-0.11726 0.74899,-0.32984 1.03849,-0.6194l10.61592,-10.61545c0.37556,-0.37562 0.58676,-0.88523 0.58676,-1.41637c0,-0.53125 -0.21114,-1.04086 -0.5867,-1.41642z" id="XMLID_145_"/>
  </g>
  <g id="svg_1"/>
  <g id="svg_2"/>
  <g id="svg_3"/>
  <g id="svg_4"/>
  <g id="svg_5"/>
  <g id="svg_6"/>
  <g id="svg_7"/>
  <g id="svg_8"/>
  <g id="svg_9"/>
  <g id="svg_10"/>
  <g id="svg_11"/>
  <g id="svg_12"/>
  <g id="svg_13"/>
  <g id="svg_14"/>
  <g id="svg_15"/>
 </g>
</svg>