<svg width="18" height="18" xmlns="http://www.w3.org/2000/svg" fill="#2c3e50">

 <g>
  <title>background</title>
  <rect fill="none" id="canvas_background" height="20" width="20" y="-1" x="-1"/>
 </g>
 <g>
  <title>Layer 1</title>
  <g stroke="null" id="svg_1">
   <g stroke="null" id="svg_2">
    <path stroke="null" id="svg_3" d="m14.03643,2.39929l-2.70246,0c-0.13481,-1.16899 -1.1294,-2.08006 -2.33399,-2.08006c-1.20455,0 -2.199,0.91103 -2.33381,2.08006l-2.70261,0c-1.09367,0 -1.98332,0.88991 -1.98332,1.98354l0,0.10177c0,0.83574 0.52038,1.55107 1.25345,1.84254l0,9.3701c0,1.09367 0.88976,1.98354 1.98336,1.98354l7.56592,0c1.09363,0 1.98332,-0.88994 1.98332,-1.98354l0,-9.37006c0.73303,-0.2915 1.25345,-1.00683 1.25345,-1.84254l0,-0.10177c0,-1.09367 -0.88973,-1.98357 -1.98332,-1.98357zm-5.03645,-1.13937c0.6851,0 1.25694,0.49105 1.38348,1.13937l-2.7667,0c0.1265,-0.64836 0.69838,-1.13937 1.38323,-1.13937zm4.82563,14.43732c0,0.57501 -0.46784,1.04289 -1.04267,1.04289l-7.56592,0c-0.57483,0 -1.04267,-0.46791 -1.04267,-1.04289l0,-9.2291l9.65127,0l0,9.2291zm1.25345,-11.21263c0,0.57501 -0.46784,1.04289 -1.04267,1.04289l-10.07283,0c-0.57483,0 -1.04267,-0.46788 -1.04267,-1.04289l0,-0.10177c0,-0.57501 0.46784,-1.04289 1.04267,-1.04289l10.07287,0c0.57483,0 1.04267,0.46788 1.04267,1.04289l0,0.10177l-0.00004,0z"/>
    <path stroke="null" id="svg_4" d="m6.47832,15.53712c0.25976,0 0.47032,-0.21064 0.47032,-0.47029l0,-5.29574c0,-0.25969 -0.2106,-0.47036 -0.47032,-0.47036c-0.25972,0 -0.47032,0.21067 -0.47032,0.47036l0,5.29574c-0.00004,0.25972 0.21056,0.47029 0.47032,0.47029z"/>
    <path stroke="null" id="svg_5" d="m8.99998,15.53712c0.25976,0 0.47036,-0.21064 0.47036,-0.47029l0,-5.29574c0,-0.25969 -0.21067,-0.47036 -0.47036,-0.47036c-0.25972,0 -0.47032,0.21067 -0.47032,0.47036l0,5.29574c0,0.25972 0.21056,0.47029 0.47032,0.47029z"/>
    <path stroke="null" id="svg_6" d="m11.52164,15.53712c0.25972,0 0.47029,-0.21064 0.47029,-0.47029l0,-5.29574c0,-0.25969 -0.2106,-0.47036 -0.47029,-0.47036c-0.2598,0 -0.47036,0.21067 -0.47036,0.47036l0,5.29574c-0.00004,0.25972 0.21064,0.47029 0.47036,0.47029z"/>
   </g>
  </g>
  <g id="svg_7"/>
  <g id="svg_8"/>
  <g id="svg_9"/>
  <g id="svg_10"/>
  <g id="svg_11"/>
  <g id="svg_12"/>
  <g id="svg_13"/>
  <g id="svg_14"/>
  <g id="svg_15"/>
  <g id="svg_16"/>
  <g id="svg_17"/>
  <g id="svg_18"/>
  <g id="svg_19"/>
  <g id="svg_20"/>
  <g id="svg_21"/>
 </g>
</svg>