<svg width="24" height="24" xmlns="http://www.w3.org/2000/svg">

 <g>
  <title>Layer 1</title>
  <g stroke="null" id="svg_1">
   <path stroke="null" id="svg_2" d="m9.33135,0.24096c-3.44696,0 -6.26053,2.81357 -6.26053,6.26053c0,2.15722 1.10156,4.07118 2.76767,5.19569c-3.18993,1.36777 -5.44813,4.53475 -5.44813,8.2158l1.79003,0c0,-3.96102 3.19452,-7.15555 7.15555,-7.15555c1.91855,0 3.63056,0.78486 4.91571,2.01035l-4.21805,4.21805l-0.05508,0.27998l-0.61504,3.1578l-0.27998,1.31269l1.31269,-0.27998l3.1578,-0.61504l0.27998,-0.05508l9.02361,-9.02361c1.0373,-1.0373 1.0373,-2.76308 0,-3.80038c-0.51865,-0.51865 -1.21172,-0.78027 -1.90019,-0.78027c-0.67471,0 -1.354,0.25703 -1.87265,0.75273l-3.54794,3.54794c-0.78027,-0.74814 -1.70283,-1.35859 -2.71259,-1.79003c1.66611,-1.12451 2.76767,-3.03847 2.76767,-5.1911c0,-3.44696 -2.81357,-6.26053 -6.26053,-6.26053zm0,1.79003c2.47851,0 4.47049,1.99199 4.47049,4.47049s-1.99199,4.47049 -4.47049,4.47049s-4.47049,-1.99199 -4.47049,-4.47049s1.99199,-4.47049 4.47049,-4.47049zm11.62604,8.94099c0.2249,0 0.46357,0.07344 0.64258,0.25244c0.35801,0.35801 0.35801,0.89961 0,1.25761l-8.6656,8.66101l-1.59267,0.33506l0.33506,-1.59267l8.66101,-8.66101c0.18359,-0.179 0.39014,-0.25244 0.61963,-0.25244z"/>
  </g>
 </g>
</svg>