<svg width="24" height="24" xmlns="http://www.w3.org/2000/svg" xml:space="preserve" version="1.1">

 <g>
  <title>Layer 1</title>
  <g stroke="null" id="svg_1">
    <path stroke="null" id="svg_3" d="m16.32219,16.32408l-8.64441,0c-0.39764,0 -0.72036,0.32275 -0.72036,0.72039s0.32272,0.72036 0.72036,0.72036l8.64441,0c0.39764,0 0.72039,-0.32272 0.72039,-0.72036s-0.32275,-0.72039 -0.72039,-0.72039zm-0.72036,-15.84812l0,0.0209c-0.09291,0 -0.47617,-0.03602 -1.44074,-0.0209l-8.64441,0c-1.59131,0 -2.88148,1.29017 -2.88148,2.88148l0,17.28886c0,1.59128 1.29017,2.88145 2.88148,2.88145l12.96664,0c1.59131,0 2.88148,-1.29017 2.88148,-2.88145l0,-14.40741l-5.76296,-5.76293zm4.32222,20.17034c0,0.79527 -0.6447,1.44074 -1.44074,1.44074l-12.96664,0c-0.79601,0 -1.44074,-0.64547 -1.44074,-1.44074l0,-17.28886c0,-0.79601 0.64473,-1.44074 1.44074,-1.44074l8.62425,0c-0.01298,1.7253 0.02017,2.88148 0.02017,2.88148c0,1.59131 1.29017,2.88148 2.88148,2.88148c0,0 1.20371,0 2.88145,0l0,12.96664l0.00003,0zm-2.88148,-14.40738c-0.79604,0 -1.44074,-0.64544 -1.44074,-1.44074c0,0 0,-1.16628 0,-2.88148l4.32219,4.32219l-2.88145,0l0,0.00003zm-0.72039,5.76293l-8.64441,0c-0.39764,0 -0.72036,0.32275 -0.72036,0.72039s0.32272,0.72036 0.72036,0.72036l8.64441,0c0.39764,0 0.72039,-0.32272 0.72039,-0.72036s-0.32275,-0.72039 -0.72039,-0.72039z"/>
  </g>
 </g>
</svg>