<svg width="32" height="32" xmlns="http://www.w3.org/2000/svg">
 <g>
  <title>background</title>
  <rect fill="none" id="canvas_background" height="34" width="34" y="-1" x="-1"/>
 </g>

 <g>
  <title>Layer 1</title>
  <path id="svg_2" d="M9.631,1.68583l19.23567,0l0,2.895l-19.23567,0l0,-2.895z M3.13333,1.68583l3.60267,0l0,2.895l-3.60267,0l0,-2.895z M9.631,8.11917l19.23567,0l0,2.895l-19.23567,0l0,-2.895z M3.13333,8.11917l3.60267,0l0,2.895l-3.60267,0l0,-2.895z M9.631,14.5525l19.23567,0l0,2.895l-19.23567,0l0,-2.895zM3.13333,14.5525l3.60267,0l0,2.895l-3.60267,0l0,-2.895z M3.4,20.98584l3.60267,0l0,2.895l-3.60267,0l0,-2.895z M9.631,27.41917l19.23567,0l0,2.895l-19.23567,0l0,-2.895z M3.4,27.41917l3.60267,0l0,2.895l-3.60267,0l0,-2.895z M9.89767,20.98584l19.23567,0l0,2.895l-19.23567,0l0,-2.895z" opacity="undefined" stroke="null"/>
 </g>
</svg>