<svg width="32" height="32" xmlns="http://www.w3.org/2000/svg" version="1.1" xml:space="preserve">
    <path stroke="null" d="M26.22515,17.94955l-20.45031,0c-0.35061,0 -0.63483,-0.28588 -0.63483,-0.6384c0,-0.35259 0.28422,-0.6384 0.63483,-0.6384l20.45024,0c0.35061,0 0.63483,0.28575 0.63483,0.6384c0,0.35253 -0.28415,0.6384 -0.63476,0.6384z M26.22515,13.86155l-20.45031,0c-0.35061,0 -0.63483,-0.28588 -0.63483,-0.6384c0,-0.35259 0.28422,-0.6384 0.63483,-0.6384l20.45024,0c0.35061,0 0.63483,0.28581 0.63483,0.6384c0,0.35253 -0.28415,0.6384 -0.63476,0.6384z M26.22515,9.7736l-20.45031,0c-0.35061,0 -0.63483,-0.28588 -0.63483,-0.6384c0,-0.35259 0.28422,-0.6384 0.63483,-0.6384l20.45024,0c0.35061,0 0.63483,0.28581 0.63483,0.6384c0,0.35253 -0.28415,0.6384 -0.63476,0.6384z M25.50402,29.3756c-0.14709,0 -0.29258,-0.05133 -0.40934,-0.15028l-6.34029,-5.37496l-14.04676,0c-2.39777,-0.00006 -4.34847,-1.96162 -4.34847,-4.37273l0,-12.48056c0,-2.41112 1.9507,-4.37267 4.34847,-4.37267l22.58474,0c2.39777,0 4.34847,1.96162 4.34847,4.37267l0,12.48056c0,2.41112 -1.9507,4.37267 -4.34847,4.37267l-1.15366,0l0,4.8869c0,0.2484 -0.14319,0.4742 -0.36721,0.57884c-0.08548,0.03996 -0.17677,0.05956 -0.26749,0.05956zm-20.79639,-25.4744c-1.69764,0 -3.07876,1.38878 -3.07876,3.09587l0,12.48056c0,1.70702 1.38112,3.09587 3.07876,3.09587l14.27862,0c0.14977,0 0.29469,0.05324 0.40928,0.15028l5.47347,4.64022l0,-4.1521c0,-0.35259 0.28428,-0.6384 0.63489,-0.6384l1.78848,0c1.69764,0 3.07876,-1.38884 3.07876,-3.09587l0,-12.48056c0,-1.70709 -1.38112,-3.09587 -3.07876,-3.09587l-22.58474,0z" id="svg_3"/>
</svg>