<svg width="32" height="32" xmlns="http://www.w3.org/2000/svg" fill="white">

 <g>
  <title>background</title>
  <rect fill="none" id="canvas_background" height="34" width="34" y="-1" x="-1"/>
 </g>
 <g>
  <title>Layer 1</title>
  <g id="svg_1" stroke="null">
   <g id="svg_2" stroke="null">
    <g stroke="null" id="svg_3">
     <path stroke="null" id="svg_5" d="m17.43887,15.68328l-5.02479,-4.43754c-0.20101,-0.16861 -0.51757,-0.1642 -0.7085,0.00886c-0.18593,0.17306 -0.18593,0.44377 0,0.61683l4.16559,3.67872l-15.35588,0c-0.24623,0 -0.46731,0.15089 -0.50749,0.3683c-0.05525,0.27956 0.19092,0.51919 0.49746,0.51919l15.37091,0l-4.17059,3.67872c-0.20101,0.16861 -0.206,0.45263 -0.01004,0.62569c0.19092,0.17752 0.51253,0.18192 0.7085,0.00886c0.00504,-0.00445 0.01004,-0.00886 0.01004,-0.00886l5.02484,-4.43754c0.19592,-0.16416 0.19592,-0.44818 -0.00005,-0.62124l0,0.00001z"/>
    </g>
    <g id="svg_21">
     <path transform="rotate(-180 13.580374717712404,16) " stroke="null" id="svg_4" d="m20.355,21.32945c-0.3194,-0.03994 -0.59247,0.17306 -0.59247,0.43932l0,3.10628l-12.36435,0l0,-17.75013l12.36435,0l0,3.09297c0,0.22186 0.18547,0.42155 0.43792,0.45263c0.3194,0.03994 0.59247,-0.17306 0.59247,-0.43932l0,-3.55001c0,-0.24408 -0.23183,-0.44377 -0.5152,-0.44377l-13.3947,0c-0.28337,0 -0.5152,0.19969 -0.5152,0.44377l0,18.63762c0,0.24408 0.23183,0.44377 0.5152,0.44377l13.3947,0c0.28337,0 0.5152,-0.19969 0.5152,-0.44377l0,-3.5367c0,-0.2219 -0.18547,-0.42159 -0.43792,-0.45267l0,0.00001z"/>
    </g>
   </g>
  </g>
 </g>
</svg>