<svg width="24" height="24" xmlns="http://www.w3.org/2000/svg" fill="white">
 <g>
  <title>Layer 1</title>
  <g stroke="null" id="svg_1">
   <g stroke="null" id="svg_2">
    <g stroke="null" id="svg_3">
     <path stroke="null" id="svg_4" d="m14.11098,17.32944c-0.3194,-0.03994 -0.59247,0.17306 -0.59247,0.43932l0,3.10628l-12.36435,0l0,-17.75013l12.36435,0l0,3.09297c0,0.22186 0.18547,0.42155 0.43792,0.45263c0.3194,0.03994 0.59247,-0.17306 0.59247,-0.43932l0,-3.55001c0,-0.24408 -0.23183,-0.44377 -0.5152,-0.44377l-13.3947,0c-0.28337,0 -0.5152,0.19969 -0.5152,0.44377l0,18.63762c0,0.24408 0.23183,0.44377 0.5152,0.44377l13.3947,0c0.28337,0 0.5152,-0.19969 0.5152,-0.44377l0,-3.5367c0,-0.2219 -0.18547,-0.42159 -0.43792,-0.45267z"/>
     <path stroke="null" id="svg_5" d="m23.67273,11.68936l-5.15178,-4.43754c-0.20609,-0.16861 -0.53065,-0.1642 -0.72641,0.00886c-0.19063,0.17306 -0.19063,0.44377 0,0.61683l4.27087,3.67872l-15.74397,0c-0.25245,0 -0.47912,0.15089 -0.52032,0.3683c-0.05665,0.27956 0.19575,0.51919 0.51003,0.51919l15.75938,0l-4.27599,3.67872c-0.20609,0.16861 -0.21121,0.45263 -0.01029,0.62569c0.19575,0.17752 0.52548,0.18192 0.72641,0.00886c0.00517,-0.00445 0.01029,-0.00886 0.01029,-0.00886l5.15183,-4.43754c0.20087,-0.16416 0.20087,-0.44818 -0.00005,-0.62124z"/>
    </g>
   </g>
  </g>
  <g id="svg_6"/>
  <g id="svg_7"/>
  <g id="svg_8"/>
  <g id="svg_9"/>
  <g id="svg_10"/>
  <g id="svg_11"/>
  <g id="svg_12"/>
  <g id="svg_13"/>
  <g id="svg_14"/>
  <g id="svg_15"/>
  <g id="svg_16"/>
  <g id="svg_17"/>
  <g id="svg_18"/>
  <g id="svg_19"/>
  <g id="svg_20"/>
 </g>
</svg>