<?xml version="1.0" encoding="UTF-8" standalone="no"?>
<!DOCTYPE svg PUBLIC "-//W3C//DTD SVG 1.1//EN" "http://www.w3.org/Graphics/SVG/1.1/DTD/svg11.dtd">
<svg version="1.1" xmlns="http://www.w3.org/2000/svg" xmlns:xlink="http://www.w3.org/1999/xlink" preserveAspectRatio="xMidYMid meet" viewBox="0 0 24 24" width="24" height="24"><defs><path d="M7.89 1.44C5.08 3.7 4.63 7.82 6.89 10.64C7.18 11.01 7.52 11.35 7.89 11.65C3.16 13.37 0 17.87 0 22.91C0 22.98 0 23.35 0 24C2.4 24 21.59 24 23.99 24C23.99 23.35 23.99 22.98 23.99 22.91C23.98 17.87 20.83 13.37 16.08 11.65C18.9 9.39 19.35 5.27 17.09 2.45C14.83 -0.37 10.71 -0.82 7.89 1.44ZM16.36 6.55C16.36 8.96 14.4 10.92 12 10.92C9.59 10.92 7.63 8.96 7.63 6.55C7.63 4.15 9.59 2.19 12 2.19C14.4 2.19 16.36 4.15 16.36 6.55ZM13.08 13.15C17.65 13.66 21.25 17.26 21.75 21.82C17.85 21.82 6.15 21.82 2.25 21.82C2.84 16.43 7.7 12.55 13.08 13.15Z" id="a1pMUOaCCS"></path><path d="M13.73 11.46C10.92 13.72 10.47 17.84 12.73 20.66C13.02 21.03 13.36 21.37 13.73 21.67C9 23.39 5.84 27.89 5.84 32.93C5.84 33 5.84 33.37 5.84 34.02C8.24 34.02 27.43 34.02 29.83 34.02C29.83 33.37 29.83 33 29.83 32.93C29.82 27.89 26.67 23.39 21.92 21.67C24.74 19.41 25.19 15.29 22.93 12.47C20.67 9.65 16.55 9.2 13.73 11.46ZM22.2 16.57C22.2 18.98 20.24 20.94 17.84 20.94C15.43 20.94 13.47 18.98 13.47 16.57C13.47 14.17 15.43 12.21 17.84 12.21C20.24 12.21 22.2 14.17 22.2 16.57ZM18.92 23.17C23.49 23.68 27.09 27.28 27.59 31.84C23.69 31.84 11.99 31.84 8.09 31.84C8.68 26.45 13.54 22.57 18.92 23.17Z" id="a32UgUfDda"></path></defs><g><g><g><use xlink:href="#a1pMUOaCCS" opacity="1" fill="#2c3e50" fill-opacity="1"></use><g><use xlink:href="#a1pMUOaCCS" opacity="1" fill-opacity="0" stroke="#000000" stroke-width="1" stroke-opacity="0"></use></g></g><g><use xlink:href="#a32UgUfDda" opacity="1" fill="#000000" fill-opacity="0"></use><g><use xlink:href="#a32UgUfDda" opacity="1" fill-opacity="0" stroke="#2c3e50" stroke-width="1" stroke-opacity="0"></use></g></g></g></g></svg>