<svg width="18" height="18" xmlns="http://www.w3.org/2000/svg">

 <g>
  <title>Layer 1</title>
  <g stroke="null" id="svg_1">
   <path stroke="null" id="svg_2" d="m17.23552,8.53125c-2.32196,-2.85976 -5.42518,-4.4368 -8.73552,-4.4368c-3.31034,0 -6.41356,1.57705 -8.73552,4.4368c-0.22166,0.27253 -0.22166,0.66134 0,0.93387c2.32196,2.86339 5.42518,4.44044 8.73552,4.44044c3.31034,0 6.41356,-1.57705 8.73552,-4.4368c0.22166,-0.27253 0.22166,-0.66498 0,-0.93751zm-8.73552,2.89973c-1.34085,0 -2.43098,-1.09012 -2.43098,-2.43098c0,-1.34085 1.09012,-2.43098 2.43098,-2.43098c1.34085,0 2.43098,1.09012 2.43098,2.43098c0,1.34085 -1.09012,2.43098 -2.43098,2.43098zm-7.18755,-2.43098c1.37356,-1.53344 3.01237,-2.58359 4.77837,-3.08505c-0.9157,0.71585 -1.508,1.83141 -1.508,3.08505c0,1.25001 0.58867,2.36557 1.508,3.08505c-1.766,-0.50146 -3.40118,-1.55161 -4.77837,-3.08505zm9.59672,3.08505c0.9157,-0.71585 1.508,-1.83141 1.508,-3.08505c0,-1.25001 -0.58867,-2.36557 -1.508,-3.08505c1.766,0.50146 3.40482,1.55161 4.77837,3.08505c-1.37719,1.53344 -3.01237,2.58359 -4.77837,3.08505z"/>
  </g>
 </g>
</svg>